<svg id="Layer_1" data-name="Layer 1" xmlns="http://www.w3.org/2000/svg" viewBox="0 0 1183.31 988.55"><defs><style>.cls-1{fill:#e62437;}.cls-2{fill:#080506;}.cls-3{fill:#e9533d;}.cls-4{fill:#231f20;}</style></defs><g id="Layer_2" data-name="Layer 2"><g id="Layer_1-2" data-name="Layer 1-2"><path class="cls-1" d="M151.34,135.49c-.56,2.18-1,4.39-1.42,6.64a100.86,100.86,0,1,0,1.42-6.64Z" transform="translate(638 538.93)"/><path class="cls-2" d="M249.49,59.09a101.17,101.17,0,1,1-99.62,83.08c.4-2.25.87-4.45,1.43-6.63A101.27,101.27,0,0,1,249.49,59.09ZM174.84,160.26a74.74,74.74,0,1,0,74.74-74.73h0a74.72,74.72,0,0,0-74.73,74.7Z" transform="translate(638 538.93)"/><path class="cls-3" d="M249.54,85.56a74.74,74.74,0,1,1-74.73,74.74h0A74.75,74.75,0,0,1,249.54,85.56ZM202.12,160.3a47.42,47.42,0,1,0,47.41-47.42h0A47.42,47.42,0,0,0,202.12,160.3Z" transform="translate(638 538.93)"/><path class="cls-2" d="M249.53,112.88a47.42,47.42,0,1,1-47.41,47.42h0a47.4,47.4,0,0,1,47.38-47.42ZM224.62,160.3a24.91,24.91,0,1,0,24.91-24.92A24.89,24.89,0,0,0,224.62,160.3Z" transform="translate(638 538.93)"/><path class="cls-3" d="M224.62,160.3a24.91,24.91,0,1,0,24.91-24.92A24.89,24.89,0,0,0,224.62,160.3Z" transform="translate(638 538.93)"/><path class="cls-1" d="M151.34,135.49c-.56,2.18-1,4.39-1.42,6.64A19.4,19.4,0,0,0,151.34,135.49Z" transform="translate(638 538.93)"/><path class="cls-3" d="M64.11,64.4a369.29,369.29,0,0,1,94.17,10.85,3.17,3.17,0,0,1,.81.07,2.61,2.61,0,0,0,2.29-.74l3-3a2.5,2.5,0,0,0,.66-2.66A368.9,368.9,0,0,1,145-20.7a368.44,368.44,0,0,1-.89-57.44c.71-11.09-2.71-26.37,8.38-33.55a16.35,16.35,0,0,1,7-2.53,13.37,13.37,0,0,1,13,5.58c6.6,9.87-3.12,30.53-3.82,41.65a278.35,278.35,0,0,0,1.3,52.11A280.58,280.58,0,0,0,186.4,51.47a2.49,2.49,0,0,0,3.2,1.47,2.11,2.11,0,0,0,.34-.16,97.71,97.71,0,0,1,10.77-5.29,2.5,2.5,0,0,0,1.46-2.86,356.44,356.44,0,0,1-9-84.51,354.8,354.8,0,0,1,4.16-49.25c1.56-9.94,1-21.05,5.25-30.36a15.88,15.88,0,0,1,9.59-9.06,13.5,13.5,0,0,1,4.85-.58c4.46.37,9.06,2.67,11.12,6.42,3.27,6-.52,13-2.16,18.94-2.15,7.8-4.11,16.19-5.46,23.86a259.29,259.29,0,0,0-4.11,48.09,271,271,0,0,0,9.86,69.06A2.51,2.51,0,0,0,229.17,39q4.74-.81,9.64-1.21a8.44,8.44,0,0,1,0-.87l0-122.94a12.66,12.66,0,0,1,12.66-12.66A12.66,12.66,0,0,1,264.07-86h0V37c0,.41,0,.83-.06,1.24q4.5.51,8.9,1.36a2.53,2.53,0,0,0,2.94-1.8,253.07,253.07,0,0,0-2-139c-2.18-7.19.3-23,10.45-22.69,2.58.07,5.53,1.35,8.76,4.31,4.64,4.26,6.25,10.7,7.5,16.84A366.24,366.24,0,0,1,299.78,46a2.52,2.52,0,0,0,1.4,2.79,121.51,121.51,0,0,1,17.09,9.62,2.5,2.5,0,0,0,3.47-.68,2.65,2.65,0,0,0,.35-.81,280,280,0,0,0,8.15-63.78,277,277,0,0,0-4.31-52.45Q323.85-70.76,320.87-82c-2.28-8.58-8.27-16,.83-23.09a15.29,15.29,0,0,1,8-3.5c13.14-1,17.75,26.34,19.42,36a367,367,0,0,1,5.38,57.3,366.09,366.09,0,0,1-6.82,75.82,2.5,2.5,0,0,0,1.9,3,2.7,2.7,0,0,0,1.06,0,366.11,366.11,0,0,1,129.76-4c7.5,1.12,15,2.4,22.38,4,6.84,1.5,14,1.33,18.74,7.32a16,16,0,0,1,3.36,9.42,13,13,0,0,1-2,7.15C517.1,96.53,504.73,91,496.68,89s-16-3.72-24.11-5.13a270.88,270.88,0,0,0-49.07-4.16A280.29,280.29,0,0,0,354,89.31a2.52,2.52,0,0,0-1.76,3.1,2.43,2.43,0,0,0,.34.73,121.85,121.85,0,0,1,9.3,17,2.53,2.53,0,0,0,2.86,1.44,355.87,355.87,0,0,1,87.06-9.55,349.73,349.73,0,0,1,43.73,3.38c11.91,1.67,26.72,1.26,37.44,7.37A13.67,13.67,0,0,1,540,125.76c-.59,11.18-8.41,14.31-17.61,11.31a230,230,0,0,0-29.47-7.72,266.38,266.38,0,0,0-49.24-4,270,270,0,0,0-71.27,10.47,2.48,2.48,0,0,0-1.76,2.87l.07.4a8.48,8.48,0,0,0,8.68,6.9H502.69a12.66,12.66,0,1,1,0,25.32h-123a11.14,11.14,0,0,1-1.17-.07,6.29,6.29,0,0,0-7.09,5.38l-.36,2.45a2.51,2.51,0,0,0,1.69,2.76,272.38,272.38,0,0,0,75.68,11.76,265.92,265.92,0,0,0,46.3-3.55c11.46-1.89,22.3-5.54,33.44-8.6,3.59-1,7.6-1.31,10.92.43,4,2.13,6,6.71,6.15,11.23a15.55,15.55,0,0,1-.89,5.78c-4.6,12.59-24.56,11.48-35.23,13.25a355.21,355.21,0,0,1-52.59,4.74,357,357,0,0,1-90.68-10.45l-.44,0a2.51,2.51,0,0,0-2.55,1.56,122,122,0,0,1-8.35,16.34,2.53,2.53,0,0,0,.9,3.45,2.38,2.38,0,0,0,.57.24,282.94,282.94,0,0,0,75.48,11.32A278.54,278.54,0,0,0,483,235c7.88-1.4,15.57-3.51,23.27-5.67,6.07-1.62,13.12-6.44,19.3-2.79a13,13,0,0,1,6.5,12.22,16.65,16.65,0,0,1-8.83,13.95c-8.77,4.32-19.11,4.11-28.52,5.67a367.85,367.85,0,0,1-54.84,5,369.07,369.07,0,0,1-86.64-9.06,2.52,2.52,0,0,0-3,1.93,2.42,2.42,0,0,0,0,1.07,365.82,365.82,0,0,1,2,136.5c-2.18,12.57-2.67,34.65-19.29,34.66-22.25,0-7.92-31.67-5.56-43.4a276.74,276.74,0,0,0,6.2-57.38,280.94,280.94,0,0,0-8.68-65.86,2.53,2.53,0,0,0-3.07-1.81,2.62,2.62,0,0,0-.81.38,121.61,121.61,0,0,1-17.19,10.15,2.46,2.46,0,0,0-1.34,2.77A352.53,352.53,0,0,1,306.23,409c-2,12.25-2.09,35.75-19,35.72-7.35,0-13.81-5.6-11.93-13.09,7-27.57,12.82-55.28,12.5-83.89A270.14,270.14,0,0,0,279,282.19a2.5,2.5,0,0,0-3-1.79q-4.38.94-8.91,1.61a11.45,11.45,0,0,1,.15,1.85v123a12.65,12.65,0,1,1-25.3,0v-123a6,6,0,0,1,0-.85c-3.29-.2-6.58-.52-9.85-.95a2.5,2.5,0,0,0-2.8,1.81,271.67,271.67,0,0,0-9.73,68.74A274.9,274.9,0,0,0,222.42,397,200.58,200.58,0,0,0,227,419.4c1.69,6.28,5.84,13.57,5.57,20.13-.3,7-7.16,8.12-12.47,10.09-16.74,0-16.65-21.45-18.57-33.37a382.11,382.11,0,0,1-5.22-55.47,354.78,354.78,0,0,1,8.74-83.5,2.48,2.48,0,0,0-1.54-2.9,120.06,120.06,0,0,1-16.67-8.24,2.53,2.53,0,0,0-3.47.89,2.22,2.22,0,0,0-.27.63,276.13,276.13,0,0,0-3.33,127.66c2.37,11.47,17,41.05-5.31,41.05-17.8,0-17.64-24.63-19.74-37.36A366.1,366.1,0,0,1,160,252.67a7,7,0,0,1-.77.16l-.42.11a369.33,369.33,0,0,1-92.14,20.92l-.22,0c-14,0-28,1.81-42,1.53s-50,4.81-52.25-16.08C-30.19,238,1.12,248,12.61,249c19.84,1.79,39.91,2.38,59.71,0a281.9,281.9,0,0,0,72.33-18.92A2.52,2.52,0,0,0,146,226.8a2.82,2.82,0,0,0-.22-.42A117.66,117.66,0,0,1,139.37,215a5.48,5.48,0,0,1-1.39.19,354.67,354.67,0,0,1-90.67,10.44,367.81,367.81,0,0,1-79.63-10.19c-6.49-1.55-9.09-6.74-9.18-13.08a2.85,2.85,0,0,1,.16-1c4.06-10.73,6-13.07,17.48-10.13,26.39,6.69,52,11.45,79.35,11.16a271.17,271.17,0,0,0,72.65-10.87,2.54,2.54,0,0,0,1.72-3c-.52-2.13-1-4.28-1.34-6.47a2.52,2.52,0,0,0-2.77-2.08c-.49.07-1,.09-1.52.12l-122.94,0a12.67,12.67,0,1,1-.05-25.34h0l123,0h0a2.5,2.5,0,0,0,2.56-2.35c.15-2.25.34-4.49.61-6.71a2.5,2.5,0,0,0-1.84-2.75A267,267,0,0,0,9.91,138.36a198.93,198.93,0,0,0-21.52,5.35c-5.31,1.56-11,5.08-16.79,3.23a12,12,0,0,1-7.5-9.14,19.79,19.79,0,0,1-.4-3.16c-.92-17.78,25-17.24,37.8-19.29a352.93,352.93,0,0,1,129.94,3.43,2.49,2.49,0,0,0,2.86-1.59,121.67,121.67,0,0,1,7.27-15.88,2.52,2.52,0,0,0-.87-3.45,2.43,2.43,0,0,0-.62-.27,280.51,280.51,0,0,0-67.54-9.1,266.94,266.94,0,0,0-48.06,4.06C16.39,94,8.3,95.65.3,97.59c-5.6,1.39-12.13,5.08-18,3.65-5.42-1.25-8.9-6.81-9.72-12.33a16.06,16.06,0,0,1-.14-4C-26.2,71.45-.83,71,9.21,69.32A366,366,0,0,1,64.11,64.4Zm87.23,71.09c-.56,2.18-1,4.39-1.42,6.64a100.86,100.86,0,1,0,1.42-6.64Z" transform="translate(638 538.93)"/><path class="cls-2" d="M237.89,160.29a11.65,11.65,0,1,0,11.65-11.64h0A11.66,11.66,0,0,0,237.89,160.29Z" transform="translate(638 538.93)"/><path class="cls-4" d="M249.62,133A39.17,39.17,0,0,1,305,77.64L290.54,92.11a18.71,18.71,0,0,0-26.45,26.45Z" transform="translate(638 538.93)"/><path class="cls-4" d="M195.08,242.82l14.47-14.47A18.7,18.7,0,1,0,236,201.93l0,0,14.46-14.46a39.15,39.15,0,0,1-55.35,55.39Z" transform="translate(638 538.93)"/><rect class="cls-3" x="224.89" y="117.27" width="70.99" height="12.65" transform="translate(626.87 759.25) rotate(-45)"/></g></g><g id="Layer_2-2" data-name="Layer 2"><g id="Layer_1-2-2" data-name="Layer 1-2"><path class="cls-1" d="M-84-145.91c2.17.59,4.36,1.09,6.6,1.53A101,101,0,0,0,41.05-224,101,101,0,0,0-38.6-342.51a101,101,0,0,0-118.49,79.65A101,101,0,0,0-84-145.91Z" transform="translate(638 538.93)"/><path class="cls-2" d="M-158.91-245.23A101.21,101.21,0,0,1-56.09-344.8,101.2,101.2,0,0,1,43.47-242,101.2,101.2,0,0,1-59.34-142.42a101.38,101.38,0,0,1-18-1.92c-2.24-.43-4.44-.93-6.61-1.52A101.3,101.3,0,0,1-158.91-245.23Zm100,76.21A74.73,74.73,0,0,0,17-242.58a74.73,74.73,0,0,0-73.56-75.89,74.73,74.73,0,0,0-75.89,73.56h0A74.72,74.72,0,0,0-58.94-169Z" transform="translate(638 538.93)"/><path class="cls-3" d="M-132.44-244.88a74.74,74.74,0,0,1,75.89-73.56A74.74,74.74,0,0,1,17-242.55,74.73,74.73,0,0,1-58.88-169h0A74.75,74.75,0,0,1-132.44-244.88Zm74,48.59A47.42,47.42,0,0,0-10.3-243,47.43,47.43,0,0,0-57-291.11a47.41,47.41,0,0,0-48.15,46.67h0A47.43,47.43,0,0,0-58.45-196.29Z" transform="translate(638 538.93)"/><path class="cls-2" d="M-105.12-244.44A47.41,47.41,0,0,1-57-291.11,47.42,47.42,0,0,1-10.3-243a47.42,47.42,0,0,1-48.15,46.67h0a47.39,47.39,0,0,1-46.67-48.12Zm47,25.65a24.91,24.91,0,0,0,25.29-24.52A24.91,24.91,0,0,0-57.33-268.6a24.91,24.91,0,0,0-25.3,24.51A24.93,24.93,0,0,0-58.1-218.79Z" transform="translate(638 538.93)"/><path class="cls-3" d="M-58.1-218.79a24.91,24.91,0,0,0,25.29-24.52A24.91,24.91,0,0,0-57.33-268.6a24.91,24.91,0,0,0-25.3,24.51A24.93,24.93,0,0,0-58.1-218.79Z" transform="translate(638 538.93)"/><path class="cls-1" d="M-84-145.91c2.17.59,4.36,1.09,6.6,1.53A19,19,0,0,0-84-145.91Z" transform="translate(638 538.93)"/><path class="cls-3" d="M-156.49-59.8a369.08,369.08,0,0,1,12.32-94,3.06,3.06,0,0,1,.08-.8,2.62,2.62,0,0,0-.7-2.3l-2.94-3a2.48,2.48,0,0,0-2.65-.7A369.06,369.06,0,0,1-240.32-142a368.51,368.51,0,0,1-57.45,0c-11.07-.88-26.4,2.3-33.41-8.9a16.4,16.4,0,0,1-2.42-7,13.38,13.38,0,0,1,5.78-12.88c10-6.44,30.48,3.59,41.58,4.47a277.65,277.65,0,0,0,52.13-.49,280.19,280.19,0,0,0,66.6-15.45,2.49,2.49,0,0,0,1.52-3.17,2.07,2.07,0,0,0-.15-.34,98.06,98.06,0,0,1-5.13-10.86,2.51,2.51,0,0,0-2.84-1.5,355.89,355.89,0,0,1-84.63,7.65,354.25,354.25,0,0,1-49.18-4.93c-9.92-1.71-21-1.35-30.28-5.71a15.9,15.9,0,0,1-8.91-9.73,13.53,13.53,0,0,1-.5-4.86c.43-4.46,2.81-9,6.59-11,6.1-3.17,13,.72,18.9,2.46,7.77,2.27,16.13,4.35,23.77,5.82a259.86,259.86,0,0,0,48,4.87,271.08,271.08,0,0,0,69.2-8.79,2.5,2.5,0,0,0,1.82-2.84q-.72-4.76-1.06-9.66l-.87,0-122.92-1.9a12.65,12.65,0,0,1-12.46-12.85,12.66,12.66,0,0,1,12.86-12.47h0l122.93,1.93a10.32,10.32,0,0,1,1.24.08q.57-4.5,1.5-8.88a2.54,2.54,0,0,0-1.76-3A252.89,252.89,0,0,0-318.9-272c-7.22,2.07-23-.66-22.53-10.8.11-2.58,1.44-5.51,4.45-8.69,4.33-4.58,10.8-6.09,17-7.24a366.17,366.17,0,0,1,148.79,3,2.49,2.49,0,0,0,2.8-1.36A122.78,122.78,0,0,1-158.54-314a2.51,2.51,0,0,0-.62-3.49,2.45,2.45,0,0,0-.81-.36A279.3,279.3,0,0,0-223.62-327a276.32,276.32,0,0,0-52.5,3.49q-11.47,1.9-22.77,4.7c-8.61,2.15-16.09,8-23.07-1.19a15.31,15.31,0,0,1-3.38-8c-.79-13.15,26.61-17.34,36.29-18.85a367.69,367.69,0,0,1,57.39-4.5,366.73,366.73,0,0,1,75.69,8,2.49,2.49,0,0,0,3-1.86,2.37,2.37,0,0,0,0-1.06,366.2,366.2,0,0,1-1.93-129.8c1.23-7.48,2.63-14.95,4.37-22.31,1.61-6.82,1.54-14,7.61-18.63a15.86,15.86,0,0,1,9.47-3.21,13,13,0,0,1,7.12,2.08c9,5.91,3.25,18.19,1.14,26.2s-4,16-5.51,24a271.37,271.37,0,0,0-4.92,49,280.43,280.43,0,0,0,8.55,69.69,2.52,2.52,0,0,0,3.07,1.8,2.17,2.17,0,0,0,.73-.32,122.41,122.41,0,0,1,17.19-9,2.51,2.51,0,0,0,1.48-2.83,356.91,356.91,0,0,1-8.19-87.2,349.39,349.39,0,0,1,4.07-43.68c1.85-11.88,1.67-26.69,7.95-37.31a13.7,13.7,0,0,1,13-6.9c11.17.77,14.17,8.64,11,17.79a227.89,227.89,0,0,0-8.18,29.34,267,267,0,0,0-4.81,49.17A269.63,269.63,0,0,0-80.31-367a2.47,2.47,0,0,0,2.84,1.8l.4-.06a8.48,8.48,0,0,0,7-8.57v-.34l1.92-122.93a12.66,12.66,0,0,1,12.85-12.46,12.66,12.66,0,0,1,12.46,12.85h0L-44.7-373.73c0,.4,0,.79-.09,1.18a6.3,6.3,0,0,0,5.26,7.17l2.45.4a2.51,2.51,0,0,0,2.78-1.65,272,272,0,0,0,12.94-75.49,265.28,265.28,0,0,0-2.83-46.35C-25.9-500-29.38-510.85-32.27-522c-.93-3.61-1.18-7.62.61-10.91,2.19-4,6.8-5.89,11.32-6a15.54,15.54,0,0,1,5.77,1c12.51,4.79,11.09,24.73,12.69,35.43A352.86,352.86,0,0,1,2-449.86,356.8,356.8,0,0,1-9.82-359.35l0,.44a2.53,2.53,0,0,0,1.53,2.58,121.4,121.4,0,0,1,16.21,8.6,2.53,2.53,0,0,0,3.46-.84,2.48,2.48,0,0,0,.25-.58,282.48,282.48,0,0,0,12.49-75.29A278.92,278.92,0,0,0,20.64-476c-1.28-7.89-3.27-15.62-5.31-23.35-1.52-6.1-6.23-13.22-2.49-19.35A13,13,0,0,1,25.16-525a16.67,16.67,0,0,1,13.82,9c4.18,8.83,3.8,19.17,5.21,28.6a367.06,367.06,0,0,1,4.11,54.91,369.54,369.54,0,0,1-10.4,86.49,2.51,2.51,0,0,0,1.88,3,2.53,2.53,0,0,0,1.06,0,365.67,365.67,0,0,1,136.52.13c12.54,2.38,34.6,3.21,34.36,19.82-.35,22.26-31.79,7.43-43.48,4.89A277.06,277.06,0,0,0,111-325.15a280.81,280.81,0,0,0-66,7.65,2.51,2.51,0,0,0-1.86,3,2.5,2.5,0,0,0,.36.82,121.7,121.7,0,0,1,9.88,17.34,2.47,2.47,0,0,0,2.75,1.39,352.24,352.24,0,0,1,135.73-1.6c12.22,2.22,35.72,2.63,35.42,19.51-.1,7.36-5.81,13.72-13.27,11.73-27.46-7.4-55.08-13.68-83.69-13.81a270.71,270.71,0,0,0-65.68,7.85,2.51,2.51,0,0,0-1.84,3q.9,4.39,1.48,8.93a11.43,11.43,0,0,1,1.85-.12L189-257.53a12.65,12.65,0,0,1,12.45,12.85,12.64,12.64,0,0,1-12.84,12.45L65.7-234.14a5.93,5.93,0,0,1-.84-.06q-.39,4.94-1.1,9.83a2.49,2.49,0,0,0,1.76,2.83,271.44,271.44,0,0,0,68.58,10.8,275.18,275.18,0,0,0,44.45-2.17A201.47,201.47,0,0,0,201-217.14c6.3-1.6,13.65-5.63,20.21-5.26,7,.4,8,7.29,9.9,12.63-.26,16.73-21.71,16.31-33.66,18.05a383.93,383.93,0,0,1-55.54,4.35,354.71,354.71,0,0,1-83.36-10,2.5,2.5,0,0,0-2.93,1.5,118.89,118.89,0,0,1-8.49,16.54,2.54,2.54,0,0,0,.83,3.49,2.5,2.5,0,0,0,.63.27,276.15,276.15,0,0,0,127.6,5.32c11.5-2.19,41.31-16.39,41,6-.28,17.8-24.91,17.26-37.67,19.15a366,366,0,0,1-146.24-7.52,7,7,0,0,1,.15.77c0,.15.07.29.11.43A369.48,369.48,0,0,1,53-59.07l0,.22c-.22,14,1.38,28,.88,42.06s4,50-16.89,52c-21.42,2-10.9-29.15-9.69-40.63,2.11-19.81,3-39.86.91-59.7a282.24,282.24,0,0,0-17.78-72.62,2.53,2.53,0,0,0-3.27-1.42,2.1,2.1,0,0,0-.42.22A120.06,120.06,0,0,1-4.72-132.7a5.52,5.52,0,0,1,.16,1.4,354.71,354.71,0,0,1,9,90.81A368.27,368.27,0,0,1-7,39c-1.65,6.47-6.88,9-13.22,9a2.75,2.75,0,0,1-.95-.17c-10.68-4.23-13-6.2-9.87-17.64C-23.89,3.86-18.74-21.67-18.6-49a271,271,0,0,0-9.74-72.82,2.53,2.53,0,0,0-3-1.77c-2.13.49-4.3.9-6.48,1.25a2.51,2.51,0,0,0-2.13,2.73c.06.5.08,1,.09,1.52L-41.78,4.82a12.67,12.67,0,0,1-12.85,12.5A12.67,12.67,0,0,1-67.12,4.47h0l1.9-122.93h0a2.5,2.5,0,0,0-2.32-2.6c-2.24-.19-4.48-.41-6.7-.71A2.49,2.49,0,0,0-77-120,266.83,266.83,0,0,0-83.38-4.45a199.47,199.47,0,0,0,5,21.6c1.48,5.33,4.91,11.13,3,16.84a12,12,0,0,1-9.26,7.36,20.93,20.93,0,0,1-3.16.35c-17.8.63-16.85-25.31-18.7-38.1a353,353,0,0,1,5.45-129.88,2.48,2.48,0,0,0-1.54-2.88,121.09,121.09,0,0,1-15.77-7.51,2.51,2.51,0,0,0-3.46.82,2.6,2.6,0,0,0-.28.61,280.44,280.44,0,0,0-10.15,67.39A267.26,267.26,0,0,0-129-19.73c1.29,8.11,2.84,16.23,4.67,24.26,1.3,5.62,4.88,12.2,3.37,18.06-1.35,5.4-7,8.79-12.48,9.53a16.14,16.14,0,0,1-4,.07c-13.45-1.58-13.52-26.95-15-37A366.62,366.62,0,0,1-156.49-59.8ZM-84-145.91c2.17.59,4.36,1.09,6.6,1.53A101,101,0,0,0,41.05-224,101,101,0,0,0-38.6-342.51a101,101,0,0,0-118.49,79.65A101,101,0,0,0-84-145.91Z" transform="translate(638 538.93)"/><path class="cls-2" d="M-57.91-232.06a11.65,11.65,0,0,0,11.83-11.46,11.63,11.63,0,0,0-11.45-11.83,11.65,11.65,0,0,0-11.83,11.46h0A11.66,11.66,0,0,0-57.91-232.06Z" transform="translate(638 538.93)"/><path class="cls-4" d="M-85-244.21a39.17,39.17,0,0,1-55.36-2,39.17,39.17,0,0,1,.84-54.26l14.24,14.69a18.71,18.71,0,0,0,.36,26.46,18.72,18.72,0,0,0,25.68.4Z" transform="translate(638 538.93)"/><path class="cls-4" d="M24-188,9.71-202.66a18.7,18.7,0,0,0,.43-26.44,18.7,18.7,0,0,0-26.44-.43v0L-30.55-244.2a39.14,39.14,0,0,1,55.36.84A39.16,39.16,0,0,1,24-188Z" transform="translate(638 538.93)"/><rect class="cls-3" x="-100.57" y="-290.62" width="12.65" height="70.99" transform="translate(788.99 401.4) rotate(-44.11)"/></g></g><g id="Layer_2-3" data-name="Layer 2"><g id="Layer_1-2-3" data-name="Layer 1-2"><path class="cls-1" d="M-445.16,135.49c-.56,2.18-1,4.39-1.42,6.64A100.94,100.94,0,0,0-365.1,259.35a101,101,0,0,0,117.23-81.49A100.94,100.94,0,0,0-329.36,60.64,101,101,0,0,0-445.16,135.49Z" transform="translate(638 538.93)"/><path class="cls-2" d="M-347,59.09A101.2,101.2,0,0,1-245.86,160.34,101.21,101.21,0,0,1-347.11,261.5,101.2,101.2,0,0,1-448.26,160.25a101.48,101.48,0,0,1,1.63-18.08c.4-2.25.87-4.45,1.43-6.63A101.27,101.27,0,0,1-347,59.09Zm-74.65,101.17A74.74,74.74,0,0,0-346.93,235a74.74,74.74,0,0,0,74.74-74.73,74.74,74.74,0,0,0-74.73-74.74h0a74.72,74.72,0,0,0-74.73,74.7Z" transform="translate(638 538.93)"/><path class="cls-3" d="M-347,85.56a74.74,74.74,0,0,1,74.74,74.74A74.74,74.74,0,0,1-347,235a74.73,74.73,0,0,1-74.73-74.73h0A74.75,74.75,0,0,1-347,85.56Zm-47.42,74.74A47.41,47.41,0,0,0-347,207.71a47.42,47.42,0,0,0,47.42-47.41A47.42,47.42,0,0,0-347,112.88h0A47.42,47.42,0,0,0-394.38,160.3Z" transform="translate(638 538.93)"/><path class="cls-2" d="M-347,112.88a47.42,47.42,0,0,1,47.42,47.42A47.42,47.42,0,0,1-347,207.71a47.41,47.41,0,0,1-47.41-47.41h0A47.4,47.4,0,0,1-347,112.88Zm-24.91,47.42A24.89,24.89,0,0,0-347,185.2a24.91,24.91,0,0,0,24.91-24.91A24.91,24.91,0,0,0-347,135.38,24.92,24.92,0,0,0-371.88,160.3Z" transform="translate(638 538.93)"/><path class="cls-3" d="M-371.88,160.3A24.89,24.89,0,0,0-347,185.2a24.91,24.91,0,0,0,24.91-24.91A24.91,24.91,0,0,0-347,135.38,24.92,24.92,0,0,0-371.88,160.3Z" transform="translate(638 538.93)"/><path class="cls-1" d="M-445.16,135.49c-.56,2.18-1,4.39-1.42,6.64A19.4,19.4,0,0,0-445.16,135.49Z" transform="translate(638 538.93)"/><path class="cls-3" d="M-532.39,64.4a369.29,369.29,0,0,1,94.17,10.85,3.17,3.17,0,0,1,.81.07,2.61,2.61,0,0,0,2.29-.74l3-3a2.5,2.5,0,0,0,.66-2.66,368.9,368.9,0,0,1-20-89.64,368.44,368.44,0,0,1-.89-57.44c.71-11.09-2.71-26.37,8.38-33.55a16.35,16.35,0,0,1,7-2.53,13.37,13.37,0,0,1,13,5.58c6.6,9.87-3.12,30.53-3.82,41.65a278.35,278.35,0,0,0,1.3,52.11A280.58,280.58,0,0,0-410.1,51.47a2.49,2.49,0,0,0,3.2,1.47,2.11,2.11,0,0,0,.34-.16,97.71,97.71,0,0,1,10.77-5.29,2.5,2.5,0,0,0,1.46-2.86,356.44,356.44,0,0,1-9-84.51,354.8,354.8,0,0,1,4.16-49.25c1.56-9.94,1-21.05,5.25-30.36a15.88,15.88,0,0,1,9.59-9.06,13.5,13.5,0,0,1,4.85-.58c4.46.37,9.06,2.67,11.12,6.42,3.27,6-.52,13-2.16,18.94-2.15,7.8-4.11,16.19-5.46,23.86a259.29,259.29,0,0,0-4.11,48.09,271,271,0,0,0,9.86,69.06A2.51,2.51,0,0,0-367.33,39q4.74-.81,9.64-1.21a8.44,8.44,0,0,1,0-.87l0-122.94a12.66,12.66,0,0,1,12.66-12.66A12.66,12.66,0,0,1-332.43-86h0V37c0,.41,0,.83-.06,1.24q4.5.51,8.9,1.36a2.53,2.53,0,0,0,2.94-1.8,253.07,253.07,0,0,0-2-139c-2.18-7.19.3-23,10.45-22.69,2.58.07,5.53,1.35,8.76,4.31,4.64,4.26,6.25,10.7,7.5,16.84A366.24,366.24,0,0,1-296.72,46a2.52,2.52,0,0,0,1.4,2.79,121.51,121.51,0,0,1,17.09,9.62,2.5,2.5,0,0,0,3.47-.68,2.65,2.65,0,0,0,.35-.81,280,280,0,0,0,8.15-63.78,277,277,0,0,0-4.31-52.45q-2.08-11.43-5.06-22.69c-2.28-8.58-8.27-16,.83-23.09a15.29,15.29,0,0,1,8-3.5c13.14-1,17.75,26.34,19.42,36A367,367,0,0,1-242-15.31a366.09,366.09,0,0,1-6.82,75.82,2.5,2.5,0,0,0,1.9,3,2.7,2.7,0,0,0,1.06,0,366.11,366.11,0,0,1,129.76-4c7.5,1.12,15,2.4,22.38,4,6.84,1.5,14,1.33,18.74,7.32a16,16,0,0,1,3.36,9.42,13,13,0,0,1-2,7.15C-79.4,96.53-91.77,91-99.82,89s-16-3.72-24.11-5.13A270.88,270.88,0,0,0-173,79.68a280.29,280.29,0,0,0-69.55,9.63,2.52,2.52,0,0,0-1.76,3.1,2.43,2.43,0,0,0,.34.73,121.85,121.85,0,0,1,9.3,17,2.53,2.53,0,0,0,2.86,1.44,355.87,355.87,0,0,1,87.06-9.55A349.73,349.73,0,0,1-101,105.46c11.91,1.67,26.72,1.26,37.44,7.37a13.67,13.67,0,0,1,7.09,12.93c-.59,11.18-8.41,14.31-17.61,11.31a230,230,0,0,0-29.47-7.72,266.38,266.38,0,0,0-49.24-4,270,270,0,0,0-71.27,10.47,2.48,2.48,0,0,0-1.76,2.87l.07.4a8.48,8.48,0,0,0,8.68,6.9H-93.81a12.68,12.68,0,0,1,12.67,12.66A12.66,12.66,0,0,1-93.8,171.28h-123a11.14,11.14,0,0,1-1.17-.07,6.29,6.29,0,0,0-7.09,5.38l-.36,2.45a2.51,2.51,0,0,0,1.69,2.76A272.38,272.38,0,0,0-148,193.56a265.92,265.92,0,0,0,46.3-3.55c11.46-1.89,22.3-5.54,33.44-8.6,3.59-1,7.6-1.31,10.92.43,4,2.13,6,6.71,6.15,11.23a15.55,15.55,0,0,1-.89,5.78c-4.6,12.59-24.56,11.48-35.23,13.25a355.21,355.21,0,0,1-52.59,4.74,357,357,0,0,1-90.68-10.45l-.44,0a2.51,2.51,0,0,0-2.55,1.56,122,122,0,0,1-8.35,16.34,2.53,2.53,0,0,0,.9,3.45,2.38,2.38,0,0,0,.57.24A282.94,282.94,0,0,0-165,239.28,278.54,278.54,0,0,0-113.49,235c7.88-1.4,15.57-3.51,23.27-5.67,6.07-1.62,13.12-6.44,19.3-2.79a13,13,0,0,1,6.5,12.22,16.65,16.65,0,0,1-8.83,13.95c-8.77,4.32-19.11,4.11-28.52,5.67a367.85,367.85,0,0,1-54.84,5,369.07,369.07,0,0,1-86.64-9.06,2.52,2.52,0,0,0-3,1.93,2.42,2.42,0,0,0,0,1.07,365.82,365.82,0,0,1,2,136.5c-2.18,12.57-2.67,34.65-19.29,34.66-22.25,0-7.92-31.67-5.56-43.4a276.74,276.74,0,0,0,6.2-57.38,280.94,280.94,0,0,0-8.68-65.86,2.53,2.53,0,0,0-3.07-1.81,2.62,2.62,0,0,0-.81.38,121.61,121.61,0,0,1-17.19,10.15,2.46,2.46,0,0,0-1.34,2.77A352.53,352.53,0,0,1-290.27,409c-2,12.25-2.09,35.75-19,35.72-7.35,0-13.81-5.6-11.93-13.09,7-27.57,12.82-55.28,12.5-83.89a270.14,270.14,0,0,0-8.87-65.55,2.5,2.5,0,0,0-3-1.79q-4.38.94-8.91,1.61a11.45,11.45,0,0,1,.15,1.85v123a12.65,12.65,0,0,1-12.65,12.65,12.65,12.65,0,0,1-12.65-12.65v-123a6,6,0,0,1,0-.85c-3.29-.2-6.58-.52-9.85-.95a2.5,2.5,0,0,0-2.8,1.81,271.67,271.67,0,0,0-9.73,68.74A274.9,274.9,0,0,0-374.08,397a200.58,200.58,0,0,0,4.59,22.39c1.69,6.28,5.84,13.57,5.57,20.13-.3,7-7.16,8.12-12.47,10.09-16.74,0-16.65-21.45-18.57-33.37a382.11,382.11,0,0,1-5.22-55.47,354.78,354.78,0,0,1,8.74-83.5,2.48,2.48,0,0,0-1.54-2.9,120.06,120.06,0,0,1-16.67-8.24,2.53,2.53,0,0,0-3.47.89,2.22,2.22,0,0,0-.27.63,276.13,276.13,0,0,0-3.33,127.66c2.37,11.47,17,41.05-5.31,41.05-17.8,0-17.64-24.63-19.74-37.36a366.1,366.1,0,0,1,5.25-146.34,7,7,0,0,1-.77.16l-.42.11a369.33,369.33,0,0,1-92.14,20.92l-.22,0c-14,0-28,1.81-42,1.53s-50,4.81-52.25-16.08c-2.33-21.38,29-11.35,40.47-10.31,19.84,1.79,39.91,2.38,59.71,0a281.9,281.9,0,0,0,72.33-18.92,2.52,2.52,0,0,0,1.37-3.29,2.82,2.82,0,0,0-.22-.42A117.66,117.66,0,0,1-457.13,215a5.48,5.48,0,0,1-1.39.19,354.67,354.67,0,0,1-90.67,10.44,367.81,367.81,0,0,1-79.63-10.19c-6.49-1.55-9.09-6.74-9.18-13.08a2.85,2.85,0,0,1,.16-1c4.06-10.73,6-13.07,17.48-10.13,26.39,6.69,52,11.45,79.35,11.16a271.17,271.17,0,0,0,72.65-10.87,2.54,2.54,0,0,0,1.72-3c-.52-2.13-1-4.28-1.34-6.47a2.52,2.52,0,0,0-2.77-2.08c-.49.07-1,.09-1.52.12l-122.94,0a12.67,12.67,0,0,1-12.7-12.65,12.67,12.67,0,0,1,12.65-12.69h0l123,0h0a2.5,2.5,0,0,0,2.56-2.35c.15-2.25.34-4.49.61-6.71a2.5,2.5,0,0,0-1.84-2.75,267,267,0,0,0-115.61-4.57,198.93,198.93,0,0,0-21.52,5.35c-5.31,1.56-11,5.08-16.79,3.23a12,12,0,0,1-7.5-9.14,19.79,19.79,0,0,1-.4-3.16c-.92-17.78,25-17.24,37.8-19.29a352.93,352.93,0,0,1,129.94,3.43,2.49,2.49,0,0,0,2.86-1.59,121.67,121.67,0,0,1,7.27-15.88,2.52,2.52,0,0,0-.87-3.45,2.43,2.43,0,0,0-.62-.27A280.51,280.51,0,0,0-524,88.49,266.94,266.94,0,0,0-572,92.55c-8.09,1.42-16.18,3.1-24.18,5-5.6,1.39-12.13,5.08-18,3.65-5.42-1.25-8.9-6.81-9.72-12.33a16.06,16.06,0,0,1-.14-4c1.37-13.48,26.74-13.94,36.78-15.61A366,366,0,0,1-532.39,64.4Zm87.23,71.09c-.56,2.18-1,4.39-1.42,6.64A100.94,100.94,0,0,0-365.1,259.35a101,101,0,0,0,117.23-81.49A100.94,100.94,0,0,0-329.36,60.64,101,101,0,0,0-445.16,135.49Z" transform="translate(638 538.93)"/><path class="cls-2" d="M-358.61,160.29A11.65,11.65,0,0,0-347,171.94a11.65,11.65,0,0,0,11.65-11.64A11.65,11.65,0,0,0-347,148.65h0A11.66,11.66,0,0,0-358.61,160.29Z" transform="translate(638 538.93)"/><path class="cls-4" d="M-346.88,133a39.16,39.16,0,0,1,1.11-55.38,39.17,39.17,0,0,1,54.27,0L-306,92.11a18.73,18.73,0,0,0-26.46.76,18.72,18.72,0,0,0,0,25.69Z" transform="translate(638 538.93)"/><path class="cls-4" d="M-401.42,242.82l14.47-14.47a18.69,18.69,0,0,0,26.44,0,18.71,18.71,0,0,0,0-26.44l0,0L-346,187.45a39.14,39.14,0,0,1,0,55.37,39.16,39.16,0,0,1-55.37,0Z" transform="translate(638 538.93)"/><rect class="cls-3" x="-371.61" y="117.27" width="70.99" height="12.65" transform="translate(452.16 337.46) rotate(-45)"/></g></g></svg>